C:\Users\israe\Dropbox\PhDWork\ExperimentalData\subject2\055\P2S055W02_filtered35.mot
nRows=6
nColumns=28

name C:\Users\israe\Dropbox\PhDWork\ExperimentalData\subject2\055\P2S055W02_filtered35.mot
datacolumns 28
datarows 6
range 0.8900000000 0.8950000000
endheader
time	ground_force_1_vx	ground_force_1_vy	ground_force_1_vz	ground_force_1_px	ground_force_1_py	ground_force_1_pz	ground_moment_1_mx	ground_moment_1_my	ground_moment_1_mz	ground_force_2_vx	ground_force_2_vy	ground_force_2_vz	ground_force_2_px	ground_force_2_py	ground_force_2_pz	ground_moment_2_mx	ground_moment_2_my	ground_moment_2_mz	ground_force_3_vx	ground_force_3_vy	ground_force_3_vz	ground_force_3_px	ground_force_3_py	ground_force_3_pz	ground_moment_3_mx	ground_moment_3_my	ground_moment_3_mz
        0.8900000000	       28.0701236710	      583.4911432132	       35.3583294507	        0.1988394961	        0.0000558755	       -0.3004071324	       72.4387617049	       -0.8817227988	      -82.4163354753	        0.0000000000	        0.0000000000	       -0.0000000000	        0.2029003516	       -0.0000795827	        0.4543649445	       -0.0000000000	       -0.0000000000	       -0.0000000000	       -0.0000000000	        0.0000000000	        0.0000000000	        0.2076431971	        0.0000770316	        1.3583900146	        0.0000000000	        0.0000000000	       -0.0000000000	
        0.8910000000	       28.0853683859	      583.4789670028	       35.5046347441	        0.1988394961	        0.0000558755	       -0.3004071324	       72.1921500594	       -0.8261944455	      -82.3963062434	        0.0000000000	        0.0000000000	       -0.0000000000	        0.2029003516	       -0.0000795827	        0.4543649445	       -0.0000000000	       -0.0000000000	       -0.0000000000	       -0.0000000000	        0.0000000000	        0.0000000000	        0.2076431971	        0.0000770316	        1.3583900146	        0.0000000000	        0.0000000000	       -0.0000000000	
        0.8920000000	       28.0972891771	      583.4546631222	       35.6520988504	        0.1988394961	        0.0000558755	       -0.3004071324	       71.9444736048	       -0.7700166928	      -82.3759673000	        0.0000000000	        0.0000000000	       -0.0000000000	        0.2029003516	       -0.0000795827	        0.4543649445	       -0.0000000000	       -0.0000000000	       -0.0000000000	       -0.0000000000	        0.0000000000	        0.0000000000	        0.2076431971	        0.0000770316	        1.3583900146	        0.0000000000	        0.0000000000	       -0.0000000000	
        0.8930000000	       28.1053760427	      583.4222308734	       35.8028178109	        0.1988394961	        0.0000558755	       -0.3004071324	       71.6962621531	       -0.7129900691	      -82.3552020041	        0.0000000000	        0.0000000000	       -0.0000000000	        0.2029003516	       -0.0000795827	        0.4543649445	       -0.0000000000	       -0.0000000000	       -0.0000000000	       -0.0000000000	        0.0000000000	        0.0000000000	        0.2076431971	        0.0000770316	        1.3583900146	        0.0000000000	        0.0000000000	       -0.0000000000	
        0.8940000000	       28.1099940760	      583.3862467647	       35.9588592194	        0.1988394961	        0.0000558755	       -0.3004071324	       71.4478435689	       -0.6550512639	      -82.3338272316	        0.0000000000	        0.0000000000	       -0.0000000000	        0.2029003516	       -0.0000795827	        0.4543649445	       -0.0000000000	       -0.0000000000	       -0.0000000000	       -0.0000000000	        0.0000000000	        0.0000000000	        0.2076431971	        0.0000770316	        1.3583900146	        0.0000000000	        0.0000000000	       -0.0000000000	
        0.8950000000	       28.1122131309	      583.3502489195	       36.1220591129	        0.1988394961	        0.0000558755	       -0.3004071324	       71.1994743525	       -0.5962008489	      -82.3116945723	        0.0000000000	        0.0000000000	       -0.0000000000	        0.2029003516	       -0.0000795827	        0.4543649445	       -0.0000000000	       -0.0000000000	        0.0000000000	       -0.0000000000	        0.0000000000	        0.0000000000	        0.2076431971	        0.0000770316	        1.3583900146	        0.0000000000	        0.0000000000	       -0.0000000000	
